<svg xmlns:dc="http://purl.org/dc/elements/1.1/" xmlns:cc="http://creativecommons.org/ns#" xmlns:rdf="http://www.w3.org/1999/02/22-rdf-syntax-ns#" xmlns:svg="http://www.w3.org/2000/svg" xmlns="http://www.w3.org/2000/svg" xmlns:sodipodi="http://sodipodi.sourceforge.net/DTD/sodipodi-0.dtd" xmlns:inkscape="http://www.inkscape.org/namespaces/inkscape" version="1.1" width="300" height="300" enable-background="new 0 0 300 300" xml:space="preserve" inkscape:version="0.48.4 r9939" sodipodi:docname="Judo_pictogram.svg"><rect id="backgroundrect" width="100%" height="100%" x="0" y="0" fill="none" stroke="none"/><metadata id="metadata23"><rdf:RDF><cc:Work rdf:about=""><dc:format>image/svg+xml</dc:format><dc:type rdf:resource="http://purl.org/dc/dcmitype/StillImage"/><dc:title/></cc:Work></rdf:RDF></metadata><defs id="defs21"/><sodipodi:namedview pagecolor="#ffffff" bordercolor="#666666" borderopacity="1" objecttolerance="10" gridtolerance="10" guidetolerance="10" inkscape:pageopacity="0" inkscape:pageshadow="2" inkscape:window-width="1920" inkscape:window-height="1025" id="namedview19" showgrid="false" inkscape:zoom="2.9766667" inkscape:cx="150" inkscape:cy="150" inkscape:window-x="0" inkscape:window-y="27" inkscape:window-maximized="1" inkscape:current-layer="Layer_1"/><g class="currentLayer" style=""><title>Layer 1</title><path id="path11" d="m 132.213,241.733 c 4.743,9.732 7.246,20.441 7.743,31.24 0.693,5.086 0.044,10.453 1.957,15.291 2.673,-8.479 4.298,-17.392 3.93,-26.315 -0.235,-4.296 -0.046,-8.602 -0.379,-12.891 -1.026,-20.812 -7.357,-41.348 -18.42,-59.023 -7.081,-11.726 -16.265,-23.118 -29.162,-28.624 -9.270504,-3.78891 -9.616837,7.11287 -24.378,-4.838 -5.582,-2.175 -11.768,1.851 -13.751,7.137 -3.955,8.935 -1.915,18.884 -2.168,28.302 -0.501,8.674 0.064,17.453 -1.734,26.017 -1.44,11.016 -5.978,21.253 -9.166,31.813 -2.346,5.944 -4.9,11.898 -8.608,17.142 -4.947,6.617 -10.261,12.962 -15.073,19.682 l 1.702,-0.049 c 4.122,-2.862 8.33,-5.653 12.176,-8.887 6.121,-5.837 11.559,-12.342 16.904,-18.883 21.693181,-28.10933 66.86144,-41.28221 78.427,-17.114 z" inkscape:connector-curvature="0" sodipodi:nodetypes="cccccccccccccccccc" class="" fill="#ffffff" fill-opacity="1"/><path id="path5" d="m 232.16688,148.99212 c 6.27172,9.61865 14.56012,3.00188 16.71012,-1.18112 3.41,-6.425 2.259,-14.001 1.275,-20.892 -1.965,-15.899 -4.385,-32.167 -1.278,-48.083 2.382,-9.462 3.456,-19.251 6.704,-28.487 3.928,-10.529 11.057,-19.371 16.459,-29.123 l -1.658,0.293 c -4.763,3.759 -9.363,7.84 -13.275,12.498 -7.098,9.754 -14.354,19.516 -19.591,30.438 -25.53883,43.42168 -49.28843,18.833806 -58.933,-0.917 -3.007,-6.746 -6.404,-13.419 -7.886,-20.714 -2.287,-9.82 -1.731,-20.008 -3.386,-29.909 -2.166,2.112 -2.01,5.352 -2.771,8.092 -2.488,10.462 -1.611,21.287 -1.098,31.913 1.188,18.287 6.368,36.319 15.282,52.341 6.671,11.506 11.56961,19.06546 21.94389,27.76045 16.06235,13.46233 22.93028,2.82465 31.50199,15.97067 z" inkscape:connector-curvature="0" sodipodi:nodetypes="sccccccccccccccss" class="" fill="#ffffff" fill-opacity="1"/><path d="M124.332,137.707c9.366,6.249,19.315,12.007,30.29,14.877c8.549,2.411,17.104,4.804,25.633,7.286  c1.588,0.475,3.231,0.754,4.898,0.744c-1.037-0.907-2.117-1.779-3.329-2.431c-8.479-4.443-16.968-8.898-25.093-13.965  c-8.945-6.572-17.439-13.883-24.444-22.533c-3.604-4.725-7.12-9.517-10.771-14.205c-3.414-4.511-7.062-9.068-11.928-12.079  c-3.085-1.863-6.724-1.669-10.064-0.72c-1.581,2.226-3.57,4.425-3.778,7.286c-0.59,4.703,1.845,9.047,4.34,12.832  C106.505,124.011,115.405,131.068,124.332,137.707z" id="path7" class="" fill="#ffffff" fill-opacity="1"/><path d="M241.463,233.249c-10.104-5.344-19.133-12.492-27.131-20.626c-6.672-5.994-12.472-13.406-20.863-17.099  c-3.469-1.723-7.268-0.792-10.807,0.116c-1.475,2.865-2.99,5.996-2.304,9.318c1.236,5.198,4.79,9.414,8.58,13.011  c10.519,9.733,23.455,16.333,36.61,21.747c13.339,5.462,27.923,5.817,41.986,8.034c3.196,0.3,6.516,1.496,9.664,0.353  C265.595,242.447,252.539,240.053,241.463,233.249z" id="path13" class="" fill="#ffffff" fill-opacity="1"/><circle cx="138.38099670410156" cy="83.34300231933594" r="21.875" id="circle15" class="" fill="#ffffff" fill-opacity="1"/><circle cx="151.375" cy="179.34800720214844" r="21.875" id="circle17" class="" fill="#ffffff" fill-opacity="1"/></g></svg>